<svg xmlns="http://www.w3.org/2000/svg" xmlns:xlink="http://www.w3.org/1999/xlink" width="500" zoomAndPan="magnify" viewBox="0 0 375 374.999991" height="500" preserveAspectRatio="xMidYMid meet" version="1.0"><defs><g/><clipPath id="126f52dbb2"><path d="M 56.488281 151.464844 L 342.238281 151.464844 L 342.238281 223.464844 L 56.488281 223.464844 Z M 56.488281 151.464844 " clip-rule="nonzero"/></clipPath><clipPath id="ffc295a7f4"><path d="M 63.558594 158.238281 L 187.308594 158.238281 L 187.308594 216.738281 L 63.558594 216.738281 Z M 63.558594 158.238281 " clip-rule="nonzero"/></clipPath></defs><g clip-path="url(#126f52dbb2)"><path stroke-linecap="butt" transform="matrix(0.750585, 0, 0, 0.749268, 56.489269, 151.4652)" fill="none" stroke-linejoin="miter" d="M -0.00131569 -0.000475002 L 380.70187 -0.000475002 L 380.70187 96.093285 L -0.00131569 96.093285 L -0.00131569 -0.000475002 " stroke="#000000" stroke-width="6" stroke-opacity="1" stroke-miterlimit="4"/></g><g clip-path="url(#ffc295a7f4)"><path fill="#000000" d="M 63.5625 158.238281 L 187.308594 158.238281 L 187.308594 216.738281 L 63.5625 216.738281 L 63.5625 158.238281 " fill-opacity="1" fill-rule="nonzero"/></g><g fill="#ffffff" fill-opacity="1"><g transform="translate(79.520821, 197.368259)"><g><path d="M 2.863281 0 L 5.308594 0 L 5.308594 -15.390625 L 16.179688 0 L 18.480469 0 L 18.480469 -19.660156 L 16.066406 -19.660156 L 16.066406 -4.269531 L 5.195312 -19.660156 L 2.863281 -19.660156 Z M 2.863281 0 "/></g></g></g><g fill="#ffffff" fill-opacity="1"><g transform="translate(102.994958, 197.368259)"><g><path d="M 11.796875 0.363281 C 17.78125 0.363281 21.992188 -3.847656 21.992188 -9.832031 C 21.992188 -15.8125 17.78125 -20.027344 11.796875 -20.027344 C 5.8125 -20.027344 1.628906 -15.8125 1.628906 -9.832031 C 1.628906 -3.847656 5.8125 0.363281 11.796875 0.363281 Z M 4.15625 -9.832031 C 4.15625 -14.410156 7.273438 -17.554688 11.796875 -17.554688 C 16.320312 -17.554688 19.4375 -14.410156 19.4375 -9.832031 C 19.4375 -5.253906 16.320312 -2.105469 11.796875 -2.105469 C 7.273438 -2.105469 4.15625 -5.253906 4.15625 -9.832031 Z M 4.15625 -9.832031 "/></g></g></g><g fill="#ffffff" fill-opacity="1"><g transform="translate(128.71534, 197.368259)"><g><path d="M 0.476562 0 L 3.117188 0 L 4.914062 -4.464844 L 14.492188 -4.464844 L 16.347656 0 L 18.960938 0 L 10.871094 -19.660156 L 8.566406 -19.660156 Z M 5.871094 -6.769531 L 9.71875 -16.207031 L 13.566406 -6.769531 Z M 5.871094 -6.769531 "/></g></g></g><g fill="#ffffff" fill-opacity="1"><g transform="translate(150.280168, 197.368259)"><g><path d="M 15.757812 0 L 18.230469 0 L 18.230469 -19.660156 L 15.757812 -19.660156 L 15.757812 -11.207031 L 5.335938 -11.207031 L 5.335938 -19.660156 L 2.863281 -19.660156 L 2.863281 0 L 5.335938 0 L 5.335938 -8.847656 L 15.757812 -8.847656 Z M 15.757812 0 "/></g></g></g><g fill="#000000" fill-opacity="1"><g transform="translate(187.61718, 195.493259)"><g><path d="M 9.257812 0.347656 C 13.710938 0.347656 17.082031 -2.355469 17.777344 -6.464844 L 13.042969 -6.464844 C 12.464844 -4.941406 11.105469 -3.96875 9.347656 -3.96875 C 7.085938 -3.96875 5.515625 -5.65625 5.515625 -8.078125 C 5.515625 -10.527344 7.109375 -12.1875 9.394531 -12.1875 C 11.082031 -12.1875 12.488281 -11.242188 12.972656 -9.789062 L 17.683594 -9.789062 C 16.851562 -13.875 13.527344 -16.503906 9.210938 -16.503906 C 4.222656 -16.503906 0.785156 -13.066406 0.785156 -8.078125 C 0.785156 -3.09375 4.222656 0.347656 9.257812 0.347656 Z M 9.257812 0.347656 "/></g></g></g><g fill="#000000" fill-opacity="1"><g transform="translate(206.122652, 195.493259)"><g><path d="M 0.117188 0 L 5.054688 0 L 5.933594 -2.285156 L 11.449219 -2.285156 L 12.328125 0 L 17.289062 0 L 11.011719 -16.160156 L 6.394531 -16.160156 Z M 6.902344 -5.703125 L 8.703125 -10.710938 L 10.503906 -5.703125 Z M 6.902344 -5.703125 "/></g></g></g><g fill="#000000" fill-opacity="1"><g transform="translate(223.520566, 195.493259)"><g><path d="M 1.707031 0 L 6.371094 0 L 6.371094 -4.59375 L 8.125 -4.59375 L 10.433594 0 L 15.722656 0 L 12.742188 -5.449219 C 14.453125 -6.394531 15.421875 -8.101562 15.421875 -10.363281 C 15.421875 -13.941406 12.996094 -16.160156 9.074219 -16.160156 L 1.707031 -16.160156 Z M 6.277344 -8.3125 L 6.277344 -12.351562 L 8.449219 -12.351562 C 9.925781 -12.351562 10.734375 -11.636719 10.734375 -10.34375 C 10.734375 -9.050781 9.925781 -8.3125 8.449219 -8.3125 Z M 6.277344 -8.3125 "/></g></g></g><g fill="#000000" fill-opacity="1"><g transform="translate(240.133953, 195.493259)"><g><path d="M 1.707031 0 L 6.371094 0 L 6.371094 -4.59375 L 8.125 -4.59375 L 10.433594 0 L 15.722656 0 L 12.742188 -5.449219 C 14.453125 -6.394531 15.421875 -8.101562 15.421875 -10.363281 C 15.421875 -13.941406 12.996094 -16.160156 9.074219 -16.160156 L 1.707031 -16.160156 Z M 6.277344 -8.3125 L 6.277344 -12.351562 L 8.449219 -12.351562 C 9.925781 -12.351562 10.734375 -11.636719 10.734375 -10.34375 C 10.734375 -9.050781 9.925781 -8.3125 8.449219 -8.3125 Z M 6.277344 -8.3125 "/></g></g></g><g fill="#000000" fill-opacity="1"><g transform="translate(256.74734, 195.493259)"><g><path d="M 0.117188 0 L 5.054688 0 L 5.933594 -2.285156 L 11.449219 -2.285156 L 12.328125 0 L 17.289062 0 L 11.011719 -16.160156 L 6.394531 -16.160156 Z M 6.902344 -5.703125 L 8.703125 -10.710938 L 10.503906 -5.703125 Z M 6.902344 -5.703125 "/></g></g></g><g fill="#000000" fill-opacity="1"><g transform="translate(274.145254, 195.493259)"><g><path d="M 1.707031 0 L 12.972656 0 L 12.972656 -4.316406 L 6.371094 -4.316406 L 6.371094 -16.160156 L 1.707031 -16.160156 Z M 1.707031 0 "/></g></g></g><g fill="#000000" fill-opacity="1"><g transform="translate(287.689782, 195.493259)"><g><path d="M 1.707031 0 L 13.042969 0 L 13.042969 -3.808594 L 6.324219 -3.808594 L 6.324219 -6.300781 L 12.164062 -6.300781 L 12.164062 -10.042969 L 6.324219 -10.042969 L 6.324219 -12.398438 L 12.789062 -12.398438 L 12.789062 -16.160156 L 1.707031 -16.160156 Z M 1.707031 0 "/></g></g></g><g fill="#000000" fill-opacity="1"><g transform="translate(301.765018, 195.493259)"><g><path d="M 1.707031 0 L 6.371094 0 L 6.371094 -4.59375 L 8.125 -4.59375 L 10.433594 0 L 15.722656 0 L 12.742188 -5.449219 C 14.453125 -6.394531 15.421875 -8.101562 15.421875 -10.363281 C 15.421875 -13.941406 12.996094 -16.160156 9.074219 -16.160156 L 1.707031 -16.160156 Z M 6.277344 -8.3125 L 6.277344 -12.351562 L 8.449219 -12.351562 C 9.925781 -12.351562 10.734375 -11.636719 10.734375 -10.34375 C 10.734375 -9.050781 9.925781 -8.3125 8.449219 -8.3125 Z M 6.277344 -8.3125 "/></g></g></g><g fill="#000000" fill-opacity="1"><g transform="translate(318.378405, 195.493259)"><g><path d="M 9.582031 0.347656 C 14.726562 0.347656 18.375 -3.140625 18.375 -8.078125 C 18.375 -13.019531 14.726562 -16.503906 9.582031 -16.503906 C 4.433594 -16.503906 0.785156 -13.019531 0.785156 -8.078125 C 0.785156 -3.140625 4.433594 0.347656 9.582031 0.347656 Z M 5.515625 -8.078125 C 5.515625 -10.503906 7.203125 -12.1875 9.582031 -12.1875 C 11.980469 -12.1875 13.644531 -10.503906 13.644531 -8.078125 C 13.644531 -5.65625 11.980469 -3.96875 9.582031 -3.96875 C 7.203125 -3.96875 5.515625 -5.65625 5.515625 -8.078125 Z M 5.515625 -8.078125 "/></g></g></g></svg>